<?xml version="1.0" standalone="no"?><!DOCTYPE svg PUBLIC "-//W3C//DTD SVG 1.1//EN" "http://www.w3.org/Graphics/SVG/1.1/DTD/svg11.dtd"><svg t="1533283584090" class="icon" style="" viewBox="0 0 1024 1024" version="1.1" xmlns="http://www.w3.org/2000/svg" p-id="3495" xmlns:xlink="http://www.w3.org/1999/xlink" width="200" height="200"><defs><style type="text/css"></style></defs><path d="M539.400192 115.173376c5.834752-5.978112 12.52352-5.69344 12.52352-5.69344s328.174592-0.001024 342.690816 0c14.517248 0.001024 20.338688 9.392128 20.350976 19.354624 0.013312 9.962496 0.996352 331.589632 0.427008 340.699136-0.569344 9.10848-1.421312 11.672576-6.404096 16.651264S488.025088 906.723328 488.025088 906.723328s-12.988416 16.407552-29.459456 0c-16.470016-16.4096-331.732992-330.025984-341.98016-340.70016-10.246144-10.674176-6.8352-21.778432 0-28.606464C123.421696 530.59072 533.56544 121.150464 539.400192 115.173376zM557.616128 83.863552c-18.786304 0-29.032448 4.839424-41.6256 17.078272-12.5952 12.238848-396.494848 397.120512-418.737152 419.397632-22.244352 22.280192-13.541376 49.099776 3.536896 66.176 17.077248 17.078272 312.916992 312.128512 337.71008 336.858112 24.793088 24.731648 48.244736 21.774336 70.018048 0s409.322496-409.83552 419.44064-419.968c10.119168-10.13248 12.766208-17.645568 12.767232-38.710272 0-21.062656 0-315.935744 0-338.706432 0-22.770688-20.494336-42.125312-43.834368-42.126336C873.552896 83.862528 576.402432 83.863552 557.616128 83.863552zM837.967872 277.277696c0 51.990528-40.63744 94.13632-90.766336 94.13632-50.12992 0-90.768384-42.144768-90.768384-94.13632 0-51.989504 40.638464-94.135296 90.768384-94.135296C797.331456 183.1424 837.967872 225.288192 837.967872 277.277696zM747.20256 210.715648c-36.7616 0-66.564096 29.802496-66.564096 66.562048 0 36.762624 29.802496 66.564096 66.564096 66.564096 36.760576 0 66.562048-29.801472 66.562048-66.564096C813.764608 240.51712 783.963136 210.715648 747.20256 210.715648z" p-id="3496" fill="#8a8a8a"></path></svg>