<?xml version="1.0" standalone="no"?><!DOCTYPE svg PUBLIC "-//W3C//DTD SVG 1.1//EN" "http://www.w3.org/Graphics/SVG/1.1/DTD/svg11.dtd"><svg t="1533371435111" class="icon" style="" viewBox="0 0 1024 1024" version="1.1" xmlns="http://www.w3.org/2000/svg" p-id="4589" xmlns:xlink="http://www.w3.org/1999/xlink" width="200" height="200"><defs><style type="text/css"></style></defs><path d="M512 0C229.677546 0 0 229.677546 0 512S229.677546 1024 512 1024 1024 794.322454 1024 512 794.322454 0 512 0z m0 1006.032883c-272.396564 0-494.032883-221.636319-494.032883-494.032883S239.603436 17.967117 512 17.967117s494.032883 221.636319 494.032883 494.032883-221.636319 494.032883-494.032883 494.032883z" fill="#f4ea2a" p-id="4590"></path><path d="M637.769816 276.16589a78.653252 55.032147 90 1 0 110.064294 0 78.653252 55.032147 90 1 0-110.064294 0Z" fill="#f4ea2a" p-id="4591"></path><path d="M276.16589 276.16589a78.653252 55.032147 90 1 0 110.064294 0 78.653252 55.032147 90 1 0-110.064294 0Z" fill="#f4ea2a" p-id="4592"></path><path d="M503.079264 810.656196c163.965644 0 301.294724-114.084908 336.852024-267.245153H166.227239c35.557301 153.160245 172.88638 267.245153 336.852025 267.245153z" fill="#f4ea2a" p-id="4593"></path></svg>