<?xml version="1.0" standalone="no"?><!DOCTYPE svg PUBLIC "-//W3C//DTD SVG 1.1//EN" "http://www.w3.org/Graphics/SVG/1.1/DTD/svg11.dtd"><svg t="1533368792893" class="icon" style="" viewBox="0 0 1024 1024" version="1.1" xmlns="http://www.w3.org/2000/svg" p-id="2182" xmlns:xlink="http://www.w3.org/1999/xlink" width="200" height="200"><defs><style type="text/css"></style></defs><path d="M618.016 78.016H65.024v552h552.992V78.016zM512 524.992H169.984V182.976H512v342.016z m0 158.016h106.016v104.992H512v-104.992z m184-604.992h106.016v104.992H696V78.016zM64.992 683.008h368v104.992h-368v-104.992zM696 262.016h106.016v368H696v-368z m-447.008 0h184v184h-184v-184zM696 946.016H960v-263.008h-264v263.008z m79.008-184h106.016v104.992h-106.016v-104.992z m79.008-237.024h106.016v104.992h-106.016v-104.992z m0-446.976h106.016v368h-106.016v-368zM64.992 840.992h104.992v104.992H64.992v-104.992z m184 0h395.008v104.992H248.992v-104.992z" p-id="2183" fill="#707070"></path></svg>