<?xml version="1.0" standalone="no"?><!DOCTYPE svg PUBLIC "-//W3C//DTD SVG 1.1//EN" "http://www.w3.org/Graphics/SVG/1.1/DTD/svg11.dtd"><svg t="1533349278183" class="icon" style="" viewBox="0 0 1024 1024" version="1.1" xmlns="http://www.w3.org/2000/svg" p-id="2279" xmlns:xlink="http://www.w3.org/1999/xlink" width="200" height="200"><defs><style type="text/css"></style></defs><path d="M537.32 305.18L101.36 307.7s24-63.36 89.94-129.36c66-65.94 126.84-92.46 126.84-92.46l219.18 219.3z" fill="#FF6E00" p-id="2280"></path><path d="M392.96 343.7L86.42 653.78s-27.84-61.8-27.84-155.04c0-93.3 24.36-155.04 24.36-155.04h310.02z" fill="#FFBC07" p-id="2281"></path><path d="M318.14 473l2.52 436.02s-63.36-24-129.36-89.94c-65.94-66-92.4-126.84-92.4-126.84l219.24-219.18v-0.06z" fill="#8CE607" p-id="2282"></path><path d="M356.66 617.42l310.08 306.54s-61.8 27.78-155.1 27.78c-93.24 0-154.98-24.3-154.98-24.3V617.42z" fill="#56C619" p-id="2283"></path><path d="M485.96 692.3l436.02-2.58s-24 63.36-90 129.36c-65.94 66-126.78 92.46-126.78 92.46l-219.24-219.3v0.06z" fill="#00CEFF" p-id="2284"></path><path d="M630.38 653.78L936.86 343.7s27.84 61.74 27.84 154.98c0 93.36-24.3 155.1-24.3 155.1H630.38z" fill="#568EF7" p-id="2285"></path><path d="M705.2 524.42L702.68 88.4s63.36 24 129.3 89.94c66 66 92.46 126.84 92.46 126.84L705.2 524.42z" fill="#5D63F5" p-id="2286"></path><path d="M666.74 380L356.6 73.52s61.8-27.84 155.1-27.84c93.24 0 154.98 24.24 154.98 24.24V380h0.06z" fill="#FC4A56" p-id="2287"></path></svg>