<?xml version="1.0" standalone="no"?><!DOCTYPE svg PUBLIC "-//W3C//DTD SVG 1.1//EN" "http://www.w3.org/Graphics/SVG/1.1/DTD/svg11.dtd"><svg t="1533369453954" class="icon" style="" viewBox="0 0 1024 1024" version="1.1" xmlns="http://www.w3.org/2000/svg" p-id="3051" xmlns:xlink="http://www.w3.org/1999/xlink" width="200" height="200"><defs><style type="text/css"></style></defs><path d="M943.04 380.624h-159.392a392.624 392.624 0 0 0-84.992 2.992 132.96 132.96 0 0 0-100.576 136 220.352 220.352 0 0 0 5.296 30.864 129.296 129.296 0 0 0 85.28 87.824c24.368 7.76 60.304 5.696 92.336 5.696H943.04v68.032a217.248 217.248 0 0 1-2.64 47.648 133.76 133.76 0 0 1-51.2 79.728 138.048 138.048 0 0 1-51.76 22.4 200.32 200.32 0 0 1-41.168 2.096H273.744c-33.104 0-72.912 3.344-99.104-4.8-51.104-15.712-82.592-52.432-93.296-109.808a142.112 142.112 0 0 1-0.88-24.576V360.496c0-34.064-3.6-75.84 4.416-103.104a130.528 130.528 0 0 1 90.864-92.256 256.688 256.688 0 0 1 67.936-4.496h542.912a244.8 244.8 0 0 1 56.464 3.296 149.152 149.152 0 0 1 59.984 32.96 100.24 100.24 0 0 1 17.056 20.976 140.88 140.88 0 0 1 21.76 55.44 221.904 221.904 0 0 1 1.184 38.4v68.928z m-215.84 65.6c6.08 1.6 12.288 0.768 17.6 2.4a66.368 66.368 0 0 1 38.224 29.664 72.768 72.768 0 0 1 7.344 18.288 66.832 66.832 0 0 1-36.464 76.128 100.064 100.064 0 0 1-24.704 5.696 51.2 51.2 0 0 1-26.752-5.392 66.32 66.32 0 0 1-36.464-82.128 67.024 67.024 0 0 1 38.528-40.464l14.112-3.6z" p-id="3052" fill="#1296db"></path></svg>