<?xml version="1.0" standalone="no"?><!DOCTYPE svg PUBLIC "-//W3C//DTD SVG 1.1//EN" "http://www.w3.org/Graphics/SVG/1.1/DTD/svg11.dtd"><svg t="1533371873332" class="icon" style="" viewBox="0 0 1024 1024" version="1.1" xmlns="http://www.w3.org/2000/svg" p-id="2175" xmlns:xlink="http://www.w3.org/1999/xlink" width="200" height="200"><defs><style type="text/css"></style></defs><path d="M545.33 128.67h-66.66A33.33 33.33 0 0 0 445.33 162v40.5a314.55 314.55 0 0 0-104.94 43.61l-28.74-28.74a33.33 33.33 0 0 0-47.14 0l-47.14 47.14a33.33 33.33 0 0 0 0 47.14l28.74 28.74a314.55 314.55 0 0 0-43.61 104.94H162a33.33 33.33 0 0 0-33.33 33.33v66.67A33.33 33.33 0 0 0 162 578.67h40.5a314.55 314.55 0 0 0 43.61 104.94l-28.74 28.74a33.33 33.33 0 0 0 0 47.14l47.14 47.14a33.33 33.33 0 0 0 47.14 0l28.74-28.74a314.55 314.55 0 0 0 104.94 43.61V862a33.33 33.33 0 0 0 33.33 33.33h66.67A33.33 33.33 0 0 0 578.67 862v-40.5a314.55 314.55 0 0 0 104.94-43.61l28.74 28.74a33.33 33.33 0 0 0 47.14 0l47.14-47.14a33.33 33.33 0 0 0 0-47.14l-28.74-28.74a314.55 314.55 0 0 0 43.61-104.94H862a33.33 33.33 0 0 0 33.33-33.33v-66.67A33.33 33.33 0 0 0 862 445.33h-40.5a314.55 314.55 0 0 0-43.61-104.94l28.74-28.74a33.33 33.33 0 0 0 0-47.14l-47.14-47.14a33.33 33.33 0 0 0-47.14 0l-28.74 28.74a314.55 314.55 0 0 0-104.94-43.61V162a33.33 33.33 0 0 0-33.33-33.33z m-33.33 600c-119.47 0-216.67-97.2-216.67-216.67S392.53 295.33 512 295.33 728.67 392.53 728.67 512 631.47 728.67 512 728.67z" fill="#1296db" p-id="2176"></path></svg>