<?xml version="1.0" standalone="no"?><!DOCTYPE svg PUBLIC "-//W3C//DTD SVG 1.1//EN" "http://www.w3.org/Graphics/SVG/1.1/DTD/svg11.dtd"><svg t="1533351312555" class="icon" style="" viewBox="0 0 1036 1024" version="1.1" xmlns="http://www.w3.org/2000/svg" p-id="2185" xmlns:xlink="http://www.w3.org/1999/xlink" width="202.34375" height="200"><defs><style type="text/css"></style></defs><path d="M431.36 257.28L544 226.56c5.12-1.28 8.32-7.04 7.04-12.16-1.28-5.12-7.04-8.32-12.8-7.04l-112.64 30.72c-5.12 1.28-8.32 7.04-7.04 12.16 1.92 5.12 7.68 8.32 12.8 7.04z m398.72 450.56l-6.4-22.4c16-16.64 22.4-40.96 16-64.64-5.76-19.84-19.2-35.2-37.12-43.52 17.28-17.28 24.96-42.88 18.56-68.48-6.4-23.04-23.04-39.68-44.16-47.36 14.08-17.28 19.84-40.32 13.44-63.36-6.4-23.04-23.04-39.68-44.16-47.36 14.08-17.28 19.84-40.32 13.44-63.36-7.68-28.8-32.64-48-60.16-51.2l-20.48-75.52c-8.96-32.64-42.88-51.84-75.52-42.88l-282.24 76.8c-32.64 8.96-51.84 42.24-42.88 74.88l8.32 30.08c-27.52 16.64-49.28 39.68-64.64 60.8-17.92 24.96-30.08 79.36-33.92 108.8-3.84 29.44 21.76 85.12 25.6 92.16 3.84 7.68 17.92 30.72-8.96 59.52-26.88 28.8-94.72 69.12-108.8 83.84-14.72 15.36-43.52 65.92 5.76 110.08 49.28 43.52 145.28 121.6 145.28 121.6s68.48 50.56 114.56-13.44l46.08-64 23.68-39.68c10.24 30.08 42.88 47.36 74.24 39.04l282.24-76.8c32-7.68 51.2-40.96 42.24-73.6z m-45.44-27.52l-92.16 24.96c-23.04 6.4-47.36-7.04-53.76-30.08s7.04-46.72 30.72-53.12l92.16-24.96c23.04-6.4 47.36 7.04 53.76 30.08s-7.04 46.72-30.72 53.12z m11.52-165.12c6.4 23.68-7.68 48-31.36 54.4l-111.36 30.08c-23.68 6.4-48.64-7.68-55.04-31.36s7.68-48 31.36-54.4l111.36-30.08c24.32-6.4 48.64 7.68 55.04 31.36z m-30.08-110.72c6.4 23.68-7.68 48-31.36 54.4l-111.36 30.08-33.28 8.96c-23.68 6.4-48.64-7.68-55.04-31.36s7.68-48 31.36-54.4l144.64-39.68c23.68-5.12 48 8.32 55.04 32z m-30.72-110.72c6.4 23.68-7.68 48-31.36 54.4l-111.36 30.08c-23.68 6.4-48.64-7.68-55.04-31.36s7.68-48 31.36-54.4l111.36-30.08c23.68-5.76 48.64 7.68 55.04 31.36z m-416.64-10.24c-6.4-24.32 7.68-49.28 32-56.32L596.48 160c24.32-6.4 49.92 7.68 56.32 32l13.44 48-28.8 7.68c-7.04-10.88-20.48-16-33.92-12.8l-215.68 58.88c-6.4 1.92-11.52 5.12-15.36 10.24-10.24-6.4-30.72-17.92-52.48-16l-1.28-4.48z m8.32 161.28l90.88 330.24L332.8 896s-23.68 36.48-54.4 14.72l-30.72-21.12-123.52-106.88s-24.32-26.24-1.92-47.36l22.4-21.12s58.88-46.72 75.52-61.44c16.64-14.72 53.76-43.52 30.72-100.48-23.04-57.6-24.32-67.2-24.96-84.48 0-17.28 15.36-67.2 25.6-88.32 0 0 17.92-28.8 44.16-46.08 9.6-5.76 19.2-9.6 26.24-10.88 14.08-2.56 26.88 1.28 37.76 7.04 1.28 0.64 3.84 1.92 7.04 3.2 0.64 0 0.64 0.64 1.28 0.64 0 0 0.64 0.64 1.28 0.64 0 0 0.64 0.64 1.28 0.64l0.64 0.64c0.64 0 0.64 0.64 1.28 0.64s0.64 0.64 1.28 0.64c0.64 0.64 1.28 0.64 1.92 1.28 0.64 0 0.64 0.64 1.28 0.64s0.64 0.64 1.28 0.64 0.64 0.64 1.28 0.64 0.64 0.64 1.28 0.64c0 0 0.64 0 0.64 0.64 0.64 0.64 1.92 1.28 2.56 1.92l0.64 0.64c0.64 0 1.28 0.64 1.28 0.64 0.64 0 0.64 0.64 1.28 0.64 1.92 1.28 3.84 1.92 5.76 3.2 0.64 0 0.64 0.64 1.28 0.64 0.64 0.64 1.28 0.64 1.92 1.28 0.64 0 0.64 0.64 1.28 0.64 39.04 23.68 94.08 59.52 94.08 59.52-7.68 42.88-29.44 61.44-76.8 62.72h-8.32c-10.88 0-36.48-6.4-36.48-6.4-23.68-8.32-38.4-19.2-42.88-21.76z m187.52 375.68c-24.32 6.4-49.92-7.68-56.32-32L379.52 504.96c14.08 2.56 35.2 2.56 35.2 2.56l50.56 183.04c4.48 16 21.12 25.6 37.76 21.12l104.96-28.8v0.64c1.28 5.12 3.2 9.6 5.76 14.08-15.36 5.76-24.32 22.4-19.84 38.4 4.48 17.28 22.4 26.88 39.68 22.4 12.8-3.84 21.76-14.72 23.68-26.88 11.52 3.2 24.32 3.2 36.48 0l98.56-26.88c0.64 0 1.28-0.64 1.92-0.64 2.56 21.76-11.52 42.88-33.28 48.64l-246.4 67.84z m-359.04-582.4c3.2 0.64 5.76 0.64 8.96 0 5.12-1.28 9.6-5.76 11.52-10.88 17.28-59.52 62.08-107.52 120.32-128 8.32-3.2 12.8-12.16 9.6-20.48-3.2-8.32-12.16-12.8-20.48-9.6C217.6 93.44 165.12 149.76 145.28 218.88c-3.84 7.68 1.28 16.64 10.24 19.2z m152.32-104.32c-46.72 17.28-83.2 55.68-96.64 103.04-2.56 8.32 2.56 17.28 10.88 19.84 3.2 0.64 5.76 0.64 8.96 0 5.12-1.28 9.6-5.76 11.52-10.88 10.88-37.76 39.68-68.48 76.8-81.92 8.32-3.2 12.8-12.16 9.6-20.48-3.2-8.32-12.16-12.8-21.12-9.6z m640 583.68c-3.2 0-5.76 0-8.32 1.28-5.12 2.56-8.32 7.04-8.96 12.8-5.76 61.44-40.96 116.48-94.08 147.84-7.68 4.48-10.24 14.72-5.76 22.4 4.48 7.68 14.72 10.24 22.4 5.76 62.08-36.48 103.04-101.12 110.08-172.8 0-8.32-6.4-16.64-15.36-17.28z m-55.04 11.52c0.64-8.96-5.76-16.64-14.72-17.92-3.2 0-5.76 0-8.96 1.28-5.12 2.56-8.32 7.04-8.96 12.8-3.84 39.04-26.24 74.88-60.16 94.72-7.68 4.48-10.24 14.72-5.76 22.4 4.48 7.68 14.72 10.24 22.4 5.76 42.88-24.96 71.68-69.76 76.16-119.04z" p-id="2186" fill="#1296db"></path></svg>