<?xml version="1.0" standalone="no"?><!DOCTYPE svg PUBLIC "-//W3C//DTD SVG 1.1//EN" "http://www.w3.org/Graphics/SVG/1.1/DTD/svg11.dtd"><svg t="1533259387621" class="icon" style="" viewBox="0 0 1024 1024" version="1.1" xmlns="http://www.w3.org/2000/svg" p-id="5420" xmlns:xlink="http://www.w3.org/1999/xlink" width="200" height="200"><defs><style type="text/css"></style></defs><path d="M510.549463 62.365396c-247.51014 0-448.164113 200.653973-448.164113 448.165136 0 247.524466 200.653973 448.15388 448.164113 448.15388 247.506047 0 448.155926-200.630437 448.155926-448.15388C958.70539 263.020392 758.05551 62.365396 510.549463 62.365396L510.549463 62.365396 510.549463 62.365396zM637.720841 510.545882c0 67.569932-52.857858 122.30658-119.410624 126.401852L364.484783 769.748319l-20.023032-11.596106 50.963719-194.334034c-7.552-16.238846-12.075013-34.202986-12.075013-53.272297 0-67.568908 52.843532-122.305557 119.372761-126.421294L656.61005 251.327072l20.024056 11.525498L625.644805 457.236745C633.197828 473.497081 637.720841 491.438709 637.720841 510.545882L637.720841 510.545882 637.720841 510.545882zM637.720841 510.545882" p-id="5421" fill="#bfbfbf"></path><path d="M452.736756 510.530532c0 15.131629 6.227842 30.175253 16.929578 40.873919 10.703783 10.70276 25.741267 16.934694 40.883129 16.934694 15.133675 0 30.1773-6.231935 40.875966-16.934694 10.70276-10.698666 16.934694-25.742291 16.934694-40.873919 0-15.141862-6.231935-30.179346-16.934694-40.883129-10.698666-10.69969-25.742291-16.929578-40.875966-16.929578-15.140839 0-30.179346 6.229888-40.883129 16.929578C458.965621 480.350163 452.736756 495.38867 452.736756 510.530532L452.736756 510.530532 452.736756 510.530532zM452.736756 510.530532" p-id="5422" fill="#bfbfbf"></path></svg>