<?xml version="1.0" standalone="no"?><!DOCTYPE svg PUBLIC "-//W3C//DTD SVG 1.1//EN" "http://www.w3.org/Graphics/SVG/1.1/DTD/svg11.dtd"><svg t="1533259901348" class="icon" style="" viewBox="0 0 1024 1024" version="1.1" xmlns="http://www.w3.org/2000/svg" p-id="4056" xmlns:xlink="http://www.w3.org/1999/xlink" width="200" height="200"><defs><style type="text/css"></style></defs><path d="M950.437547 908.890453c-26.663253-174.17728-154.637653-314.927787-321.931947-360.354133-7.965013-2.9696-13.68064-10.58816-13.68064-19.597653 0-14.088533 10.973867-18.635093 11.057493-18.757974 81.855147-41.603413 138.07104-126.419627 138.07104-224.534186 0-139.15648-112.802133-251.96544-251.956906-251.96544-139.15648 0-251.956907 112.810667-251.956907 251.96544 0 98.116267 56.215893 182.930773 138.07104 224.534186 0.08192 0.12288 11.057493 4.66944 11.057493 18.757974 0 9.009493-5.71392 16.628053-13.68064 19.597653C228.1984 593.96096 100.224 734.713173 73.560747 908.890453c-0.34816 2.6624-0.6144 5.36576-0.6144 8.13056 0 32.969387 25.547093 59.941547 57.924266 62.337707H893.139627c32.37888-2.39616 57.914027-29.36832 57.914026-62.337707 0-2.766507-0.267947-5.469867-0.616106-8.13056z m-59.275947 28.526934H132.846933c-10.156373-1.31072-17.959253-10.057387-17.959253-20.396374 0-0.91136 0.14336-1.803947 0.26624-2.68288 23.837013-155.702613 138.243413-283.76064 291.33824-325.323093l1.844907-0.50176 1.800533-0.67584c24.51456-9.13408 40.978773-32.80896 40.978773-58.898773 0-19.229013-8.364373-36.882773-22.46656-48.587094l-1.72032-2.57024-9.80992-4.99712c-71.022933-36.084053-115.13344-107.8016-115.13344-187.139413 0-115.80928 94.214827-210.024107 210.013867-210.024107S722.013867 169.83552 722.013867 285.6448c0 79.337813-44.110507 151.05536-115.13344 187.139413l-9.80992 4.99712-1.722027 2.58048c-14.11072 11.70432-22.464853 29.34784-22.464853 48.576854 0 26.089813 16.464213 49.764693 40.978773 58.898773l1.803947 0.67584 1.841493 0.50176c153.08288 41.56416 267.501227 169.62048 291.46112 326.222507 0 0 0.145067 0.882347 0.145067 1.783466 0 10.338987-7.804587 19.085653-17.952427 20.396374z" p-id="4057" fill="#bfbfbf"></path></svg>