<?xml version="1.0" standalone="no"?><!DOCTYPE svg PUBLIC "-//W3C//DTD SVG 1.1//EN" "http://www.w3.org/Graphics/SVG/1.1/DTD/svg11.dtd"><svg t="1533441819769" class="icon" style="" viewBox="0 0 1024 1024" version="1.1" xmlns="http://www.w3.org/2000/svg" p-id="2222" xmlns:xlink="http://www.w3.org/1999/xlink" width="200" height="200"><defs><style type="text/css"></style></defs><path d="" p-id="2223" fill="#dbdbdb"></path><path d="" p-id="2224" fill="#dbdbdb"></path><path d="M184.239 636.247l332.542 303.278 1.051-0.855c12.841 13.076 31.488 21.309 52.25 21.309 38.732 0 70.132-28.636 70.132-63.961 0-16.336-6.725-31.233-17.775-42.538l0.23-0.187-331.152-302.009c-23.537-21.466-23.537-56.592 0-78.058l329.236-300.543c12.046-11.485 19.46-27.045 19.46-44.193 0-35.326-31.399-63.961-70.132-63.961-21.287 0-40.345 8.661-53.208 22.317l-0.040-0.033-332.597 303.327c-74.21 67.678-74.21 178.426 0 246.106z" p-id="2225" fill="#dbdbdb"></path></svg>