<?xml version="1.0" standalone="no"?><!DOCTYPE svg PUBLIC "-//W3C//DTD SVG 1.1//EN" "http://www.w3.org/Graphics/SVG/1.1/DTD/svg11.dtd"><svg t="1533444999380" class="icon" style="" viewBox="0 0 1024 1024" version="1.1" xmlns="http://www.w3.org/2000/svg" p-id="2286" xmlns:xlink="http://www.w3.org/1999/xlink" width="200" height="200"><defs><style type="text/css"></style></defs><path d="M949.173213 765.974052 949.173213 348.514757c0-72.690577-59.133124-131.835206-131.817948-131.835206L760.799401 216.679551c-12.89588-51.585438-59.632659-89.907775-115.154936-89.907775L378.930816 126.771775c-55.538577 0-102.292614 38.322337-115.194247 89.907775l-56.515596 0c-72.6877 0-131.819865 59.144629-131.819865 131.835206l0 417.458337c0 72.690577 59.132165 131.829453 131.819865 131.829453l610.133333 0C890.04009 897.803506 949.173213 838.664629 949.173213 765.974052zM817.355266 847.882547l-610.133333 0c-40.927401 0-81.898906-40.972464-81.898906-81.910412L125.323026 348.514757c0-40.936989 40.971506-81.908494 81.898906-81.908494l0 0.094921 95.231041-0.106427 0-21.12815c0-33.689408 42.764464-68.773873 76.478801-68.773873l266.712689 0c33.684614 0 76.427026 35.084464 76.427026 68.785378l0 21.12815 95.282816 0c40.927401 0 81.897948 40.970547 81.897948 81.908494l0 417.458337C899.253213 806.910082 858.280749 847.882547 817.355266 847.882547z" p-id="2287" fill="#dbdbdb"></path><path d="M512.284764 751.843236c114.901813 0 208.378247-93.476434 208.378247-208.373453 0-114.897978-93.474517-208.379206-208.378247-208.379206-114.897978 0-208.372494 93.48027-208.372494 208.379206C303.91227 658.366801 397.386787 751.843236 512.284764 751.843236zM512.284764 385.018247c83.142472 0 158.45633 75.308105 158.45633 158.452494 0 83.143431-75.313858 158.451536-158.45633 158.451536-83.138637 0-158.452494-75.308105-158.452494-158.451536C353.833228 460.326352 429.146127 385.018247 512.284764 385.018247z" p-id="2288" fill="#dbdbdb"></path></svg>